<?xml version="1.0" encoding="utf-8"?>
<!-- Generator: Adobe Illustrator 16.0.3, SVG Export Plug-In . SVG Version: 6.00 Build 0)  -->
<!DOCTYPE svg PUBLIC "-//W3C//DTD SVG 1.1//EN" "http://www.w3.org/Graphics/SVG/1.1/DTD/svg11.dtd">
<svg version="1.1" id="レイヤー_1" xmlns="http://www.w3.org/2000/svg" xmlns:xlink="http://www.w3.org/1999/xlink" x="0px"
	 y="0px" width="130px" height="97.512px" viewBox="0 0 130 97.512" enable-background="new 0 0 130 97.512" xml:space="preserve">
<g>
	<g>
		<path fill="#422B21" d="M65,1.619c1.302,0,2.578,0.22,3.805,0.657l53.649,18.328c4.005,1.43,6.695,5.045,6.695,8.995v38.314
			c0,3.95-2.69,7.565-6.685,8.991L68.793,95.239c-1.214,0.434-2.49,0.653-3.793,0.653s-2.579-0.22-3.804-0.657L7.546,76.907
			c-4.005-1.43-6.695-5.045-6.695-8.995V29.598c0-3.95,2.69-7.565,6.684-8.991L61.207,2.272C62.421,1.839,63.697,1.619,65,1.619
			 M65,0.769c-1.384,0-2.767,0.234-4.079,0.703L7.26,19.803C2.886,21.364,0,25.258,0,29.598v38.314c0,4.341,2.886,8.234,7.26,9.796
			L60.921,96.04c1.313,0.469,2.695,0.703,4.079,0.703c1.383,0,2.767-0.234,4.079-0.703l53.661-18.332
			c4.373-1.562,7.26-5.455,7.26-9.796V29.598c0-4.34-2.887-8.234-7.26-9.795L69.079,1.471C67.767,1.003,66.383,0.769,65,0.769
			L65,0.769z"/>
	</g>
	<g>
		<g>
			<path fill="#422B21" d="M36.827,45.063c-0.239,0-0.444-0.173-0.485-0.409l-2.14-10.835h-2.715c-0.271,0-0.492-0.22-0.492-0.492
				v-2.113c0-0.271,0.221-0.492,0.492-0.492h2.194l-0.173-0.935c-0.026-0.144,0.012-0.292,0.105-0.404
				c0.093-0.113,0.232-0.177,0.378-0.177h5.801c0.237,0,0.44,0.169,0.483,0.402l0.208,1.114h9.574
				c1.002,0.01,1.729,0.277,2.164,0.792c0.467,0.552,0.614,1.409,0.436,2.544l-1.286,5.924c-0.044,0.233-0.247,0.401-0.484,0.401
				h-5.89c-0.146,0-0.285-0.065-0.378-0.177c-0.093-0.112-0.132-0.26-0.106-0.403l1.276-5.983h-4.744l2.294,10.661
				c0.027,0.144-0.011,0.292-0.104,0.405c-0.094,0.113-0.232,0.179-0.379,0.179H36.827z"/>
			<path fill="#422B21" d="M60.13,44.195c-0.208,0-0.394-0.131-0.463-0.327l-2.573-8.439c-0.054-0.151-0.031-0.318,0.062-0.449
				c0.092-0.131,0.242-0.208,0.402-0.208h5.929c0.209,0,0.395,0.132,0.464,0.329l1.227,3.484l2.058-5.697H54.99
				c-0.271,0-0.492-0.22-0.492-0.491v-2.287c0-0.272,0.22-0.493,0.492-0.493h17.618c0.998,0.01,1.688,0.271,2.052,0.772
				c0.411,0.567,0.431,1.426,0.058,2.626c-0.005,0.016-0.012,0.032-0.018,0.048l-3.004,7c-0.078,0.181-0.255,0.298-0.452,0.298
				H65.85l1.113,3.18c0.053,0.15,0.029,0.317-0.063,0.447s-0.241,0.207-0.401,0.207H60.13z"/>
			<path fill="#422B21" d="M77.475,45.063c-0.272,0-0.492-0.221-0.492-0.492V30.108c0-0.272,0.22-0.493,0.492-0.493h6.381
				c0.271,0,0.492,0.221,0.492,0.493v4.534h11.336c0.271,0,0.49,0.22,0.49,0.492v2.265c0,0.272-0.22,0.492-0.49,0.492H84.348v6.68
				c0,0.271-0.221,0.492-0.492,0.492H77.475z M93.678,32.952c-0.272,0-0.493-0.22-0.493-0.492v-3.912
				c0-0.271,0.221-0.492,0.493-0.492h0.879c0.271,0,0.492,0.22,0.492,0.492v3.912c0,0.272-0.221,0.492-0.492,0.492H93.678z
				 M90.6,32.952c-0.271,0-0.492-0.22-0.492-0.492v-3.912c0-0.271,0.221-0.492,0.492-0.492h0.881c0.271,0,0.491,0.22,0.491,0.492
				v3.912c0,0.272-0.22,0.492-0.491,0.492H90.6z"/>
			<path fill="#422B21" d="M109.925,45.063c-0.138,0-0.27-0.058-0.362-0.16c-0.094-0.102-0.139-0.238-0.127-0.375l1.211-14.463
				c0.023-0.253,0.236-0.448,0.491-0.448h6.419c0.139,0,0.27,0.059,0.363,0.161c0.093,0.102,0.139,0.239,0.127,0.377l-1.253,14.462
				c-0.023,0.253-0.235,0.447-0.489,0.447H109.925z M98.918,41.379c-0.271,0-0.492-0.22-0.492-0.492V30.108
				c0-0.272,0.221-0.493,0.492-0.493h6.164c0.272,0,0.493,0.221,0.493,0.493v10.779c0,0.271-0.221,0.492-0.493,0.492H98.918z"/>
			<path fill="#422B21" d="M59.229,64.588c-0.146,0-0.284-0.065-0.378-0.178c-0.093-0.111-0.132-0.26-0.106-0.403l1.757-9.601
				h-4.376l-1.937,9.785c-0.045,0.23-0.248,0.396-0.482,0.396h-5.958c-0.146,0-0.285-0.065-0.378-0.178
				c-0.094-0.112-0.132-0.26-0.106-0.404l1.777-9.6h-2.129c-0.272,0-0.492-0.221-0.492-0.492v-2.287c0-0.271,0.22-0.492,0.492-0.492
				h2.692l0.225-1.141c0.045-0.23,0.248-0.396,0.482-0.396h5.972c0.147,0,0.287,0.064,0.38,0.179
				c0.093,0.114,0.131,0.263,0.103,0.407l-0.187,0.951h8.513c0.994,0.011,1.718,0.277,2.16,0.793
				c0.473,0.553,0.629,1.409,0.462,2.543l-1.915,9.721c-0.045,0.23-0.248,0.396-0.483,0.396H59.229z"/>
			<path fill="#422B21" d="M79.957,64.588c-0.146,0-0.283-0.065-0.377-0.178c-0.094-0.111-0.133-0.26-0.106-0.402l1.952-10.729
				H69.982c-0.272,0-0.492-0.221-0.492-0.492V50.5c0-0.271,0.22-0.492,0.492-0.492h16.079c0.983,0.012,1.7,0.273,2.135,0.781
				c0.477,0.557,0.634,1.432,0.465,2.599l-2.026,10.798c-0.043,0.233-0.246,0.402-0.482,0.402H79.957z"/>
			<path fill="#422B21" d="M90.928,64.588c-0.271,0-0.492-0.221-0.492-0.492v-1.768c0-0.271,0.221-0.492,0.492-0.492h4.36V54.73
				h-4.36c-0.271,0-0.492-0.22-0.492-0.491v-1.876c0-0.271,0.221-0.491,0.492-0.491h15.241c0.272,0,0.493,0.22,0.493,0.491v1.876
				c0,0.271-0.221,0.491-0.493,0.491h-4.382v7.105h4.382c0.272,0,0.493,0.221,0.493,0.492v1.768c0,0.271-0.221,0.492-0.493,0.492
				H90.928z"/>
		</g>
	</g>
	<g>
		<path fill="#422B21" d="M39.664,74.002h0.504c0.176,0,0.286,0.079,0.347,0.243l0.285,0.766l0.365,1.009h0.024
			c0.127-0.353,0.249-0.668,0.377-1.009l0.286-0.766c0.061-0.164,0.17-0.243,0.346-0.243h0.486c0.231,0,0.328,0.151,0.231,0.358
			l-1.204,2.57v1.295c0,0.194-0.109,0.305-0.304,0.305h-0.474c-0.194,0-0.304-0.11-0.304-0.305v-1.295l-1.197-2.57
			C39.335,74.153,39.433,74.002,39.664,74.002z"/>
		<path fill="#422B21" d="M43.647,77.563c0-0.729,0.571-1.124,1.921-1.27c-0.024-0.279-0.17-0.443-0.523-0.443
			c-0.201,0-0.401,0.061-0.632,0.164c-0.182,0.085-0.322,0.042-0.413-0.128l-0.097-0.176c-0.091-0.171-0.049-0.322,0.122-0.414
			c0.383-0.188,0.79-0.31,1.228-0.31c0.894,0,1.398,0.498,1.398,1.58v1.659c0,0.194-0.109,0.305-0.304,0.305h-0.304
			c-0.182,0-0.286-0.056-0.31-0.171l-0.036-0.176h-0.03c-0.286,0.255-0.608,0.431-0.991,0.431
			C44.036,78.614,43.647,78.141,43.647,77.563z M45.045,77.775c0.219,0,0.365-0.103,0.523-0.273v-0.553
			c-0.675,0.085-0.894,0.286-0.894,0.529C44.674,77.679,44.82,77.775,45.045,77.775z"/>
		<path fill="#422B21" d="M48.36,75.071h0.298c0.182,0,0.298,0.073,0.322,0.219l0.036,0.219h0.018
			c0.286-0.286,0.583-0.522,1.052-0.522c0.48,0,0.771,0.2,0.948,0.571c0.298-0.304,0.62-0.571,1.082-0.571
			c0.754,0,1.082,0.541,1.082,1.403v1.836c0,0.194-0.109,0.305-0.304,0.305H52.42c-0.194,0-0.304-0.11-0.304-0.305v-1.701
			c0-0.481-0.122-0.614-0.395-0.614c-0.158,0-0.346,0.097-0.553,0.31v2.006c0,0.194-0.11,0.305-0.304,0.305H50.39
			c-0.194,0-0.304-0.11-0.304-0.305v-1.701c0-0.481-0.127-0.614-0.401-0.614c-0.158,0-0.346,0.097-0.547,0.31v2.006
			c0,0.194-0.109,0.305-0.304,0.305H48.36c-0.194,0-0.304-0.11-0.304-0.305v-2.851C48.057,75.181,48.166,75.071,48.36,75.071z"/>
		<path fill="#422B21" d="M54.444,77.563c0-0.729,0.572-1.124,1.921-1.27c-0.024-0.279-0.17-0.443-0.523-0.443
			c-0.2,0-0.401,0.061-0.632,0.164c-0.183,0.085-0.322,0.042-0.414-0.128l-0.097-0.176c-0.091-0.171-0.048-0.322,0.122-0.414
			c0.383-0.188,0.79-0.31,1.228-0.31c0.893,0,1.397,0.498,1.397,1.58v1.659c0,0.194-0.109,0.305-0.304,0.305h-0.304
			c-0.183,0-0.286-0.056-0.31-0.171l-0.037-0.176h-0.03c-0.286,0.255-0.608,0.431-0.991,0.431
			C54.833,78.614,54.444,78.141,54.444,77.563z M55.842,77.775c0.219,0,0.365-0.103,0.523-0.273v-0.553
			c-0.675,0.085-0.894,0.286-0.894,0.529C55.471,77.679,55.617,77.775,55.842,77.775z"/>
		<path fill="#422B21" d="M58.688,76.798c0-1.131,0.711-1.812,1.428-1.812c0.383,0,0.608,0.14,0.833,0.358l-0.036-0.517v-0.851
			c0-0.194,0.109-0.305,0.304-0.305h0.474c0.194,0,0.304,0.11,0.304,0.305v4.248c0,0.194-0.109,0.305-0.304,0.305h-0.304
			c-0.183,0-0.286-0.05-0.31-0.165l-0.042-0.17H61.01c-0.243,0.243-0.578,0.419-0.906,0.419
			C59.241,78.614,58.688,77.928,58.688,76.798z M60.39,77.728c0.207,0,0.371-0.067,0.523-0.292v-1.361
			c-0.164-0.152-0.358-0.207-0.541-0.207c-0.298,0-0.571,0.279-0.571,0.918C59.8,77.447,60.019,77.728,60.39,77.728z"/>
		<path fill="#422B21" d="M63.258,76.798c0-1.144,0.814-1.812,1.696-1.812c0.875,0,1.689,0.668,1.689,1.812
			c0,1.148-0.814,1.816-1.689,1.816C64.073,78.614,63.258,77.946,63.258,76.798z M64.954,77.739c0.401,0,0.583-0.364,0.583-0.941
			c0-0.572-0.182-0.937-0.583-0.937c-0.407,0-0.589,0.364-0.589,0.937C64.365,77.375,64.547,77.739,64.954,77.739z"/>
		<path fill="#422B21" d="M68.205,75.071h0.291c0.188,0,0.298,0.104,0.322,0.286l0.043,0.315h0.018
			c0.256-0.462,0.639-0.687,0.984-0.687c0.049,0,0.098,0,0.135,0.006c0.193,0.013,0.267,0.158,0.23,0.353l-0.066,0.346
			c-0.037,0.189-0.122,0.28-0.244,0.256c-0.061-0.006-0.121-0.012-0.193-0.012c-0.256,0-0.566,0.164-0.742,0.62v1.671
			c0,0.194-0.109,0.305-0.304,0.305h-0.474c-0.195,0-0.305-0.11-0.305-0.305v-2.851C67.9,75.181,68.01,75.071,68.205,75.071z"/>
		<path fill="#422B21" d="M71.86,73.479c0.358,0,0.602,0.219,0.602,0.553c0,0.34-0.243,0.559-0.602,0.559
			c-0.365,0-0.603-0.219-0.603-0.559C71.258,73.698,71.495,73.479,71.86,73.479z M71.623,75.071h0.475
			c0.193,0,0.303,0.109,0.303,0.304v2.851c0,0.194-0.109,0.305-0.303,0.305h-0.475c-0.194,0-0.304-0.11-0.304-0.305v-2.851
			C71.319,75.181,71.429,75.071,71.623,75.071z"/>
		<path fill="#422B21" d="M77.399,76.293c0-1.507,1.009-2.371,2.157-2.371c0.463,0,0.857,0.171,1.155,0.396
			c0.151,0.116,0.151,0.28,0.03,0.426l-0.188,0.23c-0.122,0.152-0.261,0.158-0.425,0.049c-0.164-0.104-0.341-0.17-0.554-0.17
			c-0.583,0-1.063,0.522-1.063,1.403c0,0.9,0.413,1.423,1.051,1.423c0.25,0,0.457-0.085,0.639-0.213
			c0.158-0.115,0.292-0.115,0.42,0.036l0.188,0.226c0.122,0.146,0.128,0.297-0.012,0.425c-0.353,0.304-0.784,0.462-1.276,0.462
			C78.372,78.614,77.399,77.825,77.399,76.293z"/>
		<path fill="#422B21" d="M82.027,77.563c0-0.729,0.572-1.124,1.922-1.27c-0.025-0.279-0.171-0.443-0.523-0.443
			c-0.2,0-0.4,0.061-0.632,0.164c-0.183,0.085-0.322,0.042-0.413-0.128l-0.098-0.176c-0.091-0.171-0.049-0.322,0.121-0.414
			c0.383-0.188,0.791-0.31,1.229-0.31c0.893,0,1.397,0.498,1.397,1.58v1.659c0,0.194-0.109,0.305-0.304,0.305h-0.304
			c-0.183,0-0.286-0.056-0.31-0.171l-0.037-0.176h-0.03c-0.286,0.255-0.608,0.431-0.991,0.431
			C82.417,78.614,82.027,78.141,82.027,77.563z M83.426,77.775c0.219,0,0.365-0.103,0.523-0.273v-0.553
			c-0.676,0.085-0.895,0.286-0.895,0.529C83.055,77.679,83.201,77.775,83.426,77.775z"/>
		<path fill="#422B21" d="M86.119,75.612v-0.207c0-0.188,0.078-0.298,0.23-0.31l0.23-0.019v-0.14c0-0.729,0.347-1.349,1.307-1.349
			c0.158,0,0.299,0.018,0.42,0.036c0.188,0.036,0.255,0.182,0.213,0.371l-0.055,0.218c-0.043,0.188-0.122,0.262-0.237,0.237
			c-0.061-0.012-0.122-0.018-0.183-0.018c-0.236,0-0.383,0.127-0.383,0.474v0.164h0.311c0.194,0,0.303,0.109,0.303,0.304v0.237
			c0,0.194-0.108,0.304-0.303,0.304h-0.311v2.31c0,0.194-0.109,0.305-0.304,0.305h-0.474c-0.195,0-0.305-0.11-0.305-0.305v-2.31
			h-0.158C86.229,75.916,86.119,75.807,86.119,75.612z"/>
		<path fill="#422B21" d="M89.166,76.798c0-1.119,0.809-1.812,1.641-1.812c0.998,0,1.484,0.724,1.484,1.665
			c0,0.067,0,0.128-0.007,0.188c-0.019,0.188-0.14,0.28-0.322,0.28h-1.75c0.097,0.474,0.425,0.668,0.862,0.668
			c0.158,0,0.311-0.03,0.463-0.092c0.182-0.066,0.315-0.036,0.406,0.135l0.073,0.127c0.098,0.17,0.062,0.328-0.128,0.426
			c-0.303,0.152-0.656,0.23-0.96,0.23C89.932,78.614,89.166,77.946,89.166,76.798z M91.373,76.408c0-0.34-0.152-0.596-0.547-0.596
			c-0.299,0-0.56,0.188-0.633,0.596H91.373z"/>
	</g>
	<g>
		<g id="グループ_1268_7_" transform="translate(0 15.048)">
			<g id="グループ_1266_7_" transform="translate(0 0)">
				<g id="グループ_1265_7_">
					<path id="パス_756_7_" fill="#422B21" d="M11.22,46.517c0.249-0.093,0.45-0.062,0.423-0.165
						c-0.029-0.103-0.639-0.02-1.013,0.066c-0.39,0.088-0.972,0.533-1.117,0.477c-0.053-0.023-0.112-0.117,0.014-0.243
						c0.298-0.236,0.628-0.427,0.982-0.567c0.836-0.229,1.721-0.217,2.551,0.035c0.181,0.093,1.717-2.285,1.676-2.477
						c-0.043-0.188-0.117-0.597-0.131-0.763c0-0.015,0.002-0.029,0.006-0.042c-0.471-0.328-0.867-0.752-1.162-1.244
						c-0.289-0.174-0.467-0.301-0.497-0.328c-0.004-0.003-0.011-0.004-0.017-0.004c-5.239,0.416-5.142-3.146-5.13-3.377
						c0.002-0.007-0.002-0.015-0.011-0.018c-2.639-1.908-0.095-8.361,0.011-8.619c0.002-0.005,0.002-0.01,0-0.017
						c-0.03-0.083-0.299-0.752-0.567-1.295c-0.397-0.556-0.881-1.045-1.43-1.448c-0.857-0.579-1.928-0.125-2.357-0.125
						c-0.43,0-0.285-0.292-0.285-0.292c0.617-0.93,1.586-1.769,2.208-2.045c0.003-0.001,0.006-0.003,0.011-0.005
						c1.415-1.719,2.851-1.879,3.42-1.879h0.004c2.033-0.027,3.786,1.43,4.131,3.435c5.48-1.852,8.857,0.912,8.857,0.912
						c5.242,2.16,8.515,9.446,8.565,9.557l0,0c0.201,0.278-7.322,5.228-7.459,5.249c-0.004,0-0.005,0-0.01,0.004
						c-0.585,0.459-1.23,0.834-1.917,1.119c0.058,0.34-0.039,0.688-0.265,0.948l0.058,0.218c0.008,0.021,0.014,0.039,0.014,0.059
						c0.002,0.123-0.022,0.242-0.07,0.357l-1.555,3.672c-0.006,0.01-0.213,0.33-0.22,0.344c-0.208,0.318-0.934,0.233-1.259,0.516
						c-0.538,0.467-0.521,1.109-0.653,1.195c-0.136,0.074-0.28,0.06-0.309-0.08c-0.014-0.369,0.08-0.733,0.272-1.051
						c0.118-0.223,0.289-0.414,0.493-0.562c0.036-0.028,0.031-0.155-0.167-0.111c-0.396,0.071-0.774,0.222-1.11,0.442
						c-0.318,0.297-0.61,0.627-0.866,0.981c-0.117,0.101-0.3,0.124-0.311-0.081c0.109-0.486,0.389-0.917,0.788-1.215
						c0.214-0.166,0.453-0.304,0.708-0.4c0.409-0.197,0.575-0.169,0.528-0.264c-0.378-0.068-0.766-0.039-1.13,0.086
						c-0.469,0.152-0.95,0.264-1.438,0.336c-0.074-0.039-0.101-0.132-0.062-0.205c0.006-0.012,0.017-0.023,0.026-0.033
						c1.174-0.603,2.502-0.834,3.812-0.665c0.195,0.054,1.204-2.599,1.124-2.776c-0.034-0.076-0.082-0.189-0.131-0.303
						c-0.436-0.104-0.785-0.428-0.918-0.855c-0.495,0.012-0.993-0.025-1.483-0.105c-0.17,0.203-0.4,0.352-0.656,0.42l0.005,0.117
						c0.006,0.02,0.007,0.038,0.004,0.059c-0.027,0.119-0.074,0.232-0.142,0.332l-2.28,3.26c-0.008,0.011-0.279,0.281-0.285,0.292
						c-0.27,0.269-0.961,0.028-1.341,0.238c-0.395,0.267-0.758,0.577-1.087,0.921c-0.148,0.045-0.286,0-0.286-0.145
						c0.067-0.309,0.234-0.586,0.478-0.787c0.233-0.225,0.508-0.398,0.807-0.52c0.041-0.018,0.065-0.144-0.144-0.144
						c-0.867,0.082-1.701,0.38-2.424,0.868c-0.134,0.072-0.32,0.06-0.286-0.146c0.043-0.247,0.756-0.608,1.285-0.867
						C10.728,46.661,10.971,46.578,11.22,46.517z"/>
				</g>
			</g>
		</g>
		<path fill="#422B21" d="M30.362,51.097c0,0,15.086,11.398,15.086,13.784c0,0-3.616-3.199-4.195-3.345c0,0,2.387,2.404,2.098,3.128
			l-2.892-2.17c0,0,1.013,1.446,0.723,2.025c0,0-9.146-6.472-16.668-10.955"/>
	</g>
	<g>
		<g>
			<path fill="#422B21" d="M60.021,21.615c0,0,0.696,3.2-2.938,1.61c-3.635-1.59-5.116-9.664-1.729-9.227
				C57.779,14.312,58.286,16.409,60.021,21.615z"/>
		</g>
		<path fill="#422B21" d="M55.755,13.408c0,0,2.82,1.057,3.978,3.941c0,0,1.41,3.182,0.831,5.351c0,0,3.345-0.308,0.995-6.092
			c0,0-1.054-2.447-2.87-3.355C57.914,12.866,56.37,12.359,55.755,13.408z"/>
	</g>
	<g>
		<g>
			<path fill="#422B21" d="M67.857,19.197c0,0-1.613,2.85-3.264-0.758s2.625-10.615,4.86-8.032
				C71.053,12.258,70.033,14.159,67.857,19.197z"/>
		</g>
		<path fill="#422B21" d="M70.145,10.234c0,0,1.398,2.667,0.34,5.589c0,0-1.068,3.313-2.945,4.544c0,0,2.698,2,4.801-3.88
			c0,0,0.846-2.527,0.096-4.413C72.116,11.269,71.303,9.862,70.145,10.234z"/>
	</g>
</g>
</svg>
