<?xml version="1.0" encoding="utf-8"?>
<!-- Generator: Adobe Illustrator 16.0.3, SVG Export Plug-In . SVG Version: 6.00 Build 0)  -->
<!DOCTYPE svg PUBLIC "-//W3C//DTD SVG 1.1//EN" "http://www.w3.org/Graphics/SVG/1.1/DTD/svg11.dtd">
<svg version="1.1" id="レイヤー_1" xmlns="http://www.w3.org/2000/svg" xmlns:xlink="http://www.w3.org/1999/xlink" x="0px"
	 y="0px" width="130px" height="95.975px" viewBox="25 -10.1 130 95.975" enable-background="new 25 -10.1 130 95.975"
	 xml:space="preserve">
<g>
	<g>
		<path fill="#FFFFFF" d="M90-9.25c1.302,0,2.578,0.22,3.805,0.657l53.649,18.328c4.005,1.43,6.695,5.045,6.695,8.995v38.315
			c0,3.949-2.69,7.564-6.685,8.99L93.793,84.37c-1.214,0.434-2.49,0.653-3.793,0.653s-2.579-0.22-3.804-0.657l-53.65-18.328
			c-4.005-1.43-6.695-5.044-6.695-8.994V18.729c0-3.95,2.69-7.565,6.684-8.991L86.207-8.597C87.421-9.03,88.697-9.25,90-9.25
			 M90-10.1c-1.384,0-2.768,0.234-4.079,0.703L32.26,8.934C27.886,10.495,25,14.389,25,18.729v38.315c0,4.34,2.886,8.233,7.26,9.795
			l53.661,18.332c1.313,0.469,2.695,0.703,4.079,0.703c1.383,0,2.767-0.234,4.079-0.703l53.661-18.332
			c4.373-1.562,7.26-5.455,7.26-9.795V18.729c0-4.34-2.887-8.234-7.26-9.795L94.079-9.398C92.767-9.866,91.383-10.1,90-10.1L90-10.1
			z"/>
	</g>
	<g>
		<g>
			<path fill="#FFFFFF" d="M61.826,34.194c-0.239,0-0.443-0.173-0.484-0.409l-2.14-10.835h-2.715c-0.271,0-0.492-0.22-0.492-0.492
				v-2.113c0-0.271,0.221-0.492,0.492-0.492h2.194l-0.174-0.935c-0.026-0.144,0.012-0.292,0.105-0.404
				c0.094-0.113,0.232-0.177,0.379-0.177h5.801c0.237,0,0.44,0.169,0.483,0.402l0.208,1.114h9.574
				c1.002,0.01,1.729,0.277,2.164,0.792c0.467,0.552,0.613,1.409,0.436,2.544l-1.286,5.924c-0.044,0.233-0.247,0.401-0.483,0.401
				h-5.89c-0.146,0-0.285-0.065-0.378-0.177c-0.094-0.112-0.132-0.26-0.106-0.403l1.276-5.983h-4.744l2.295,10.661
				c0.026,0.144-0.012,0.292-0.104,0.405c-0.094,0.113-0.232,0.179-0.379,0.179H61.826z"/>
			<path fill="#FFFFFF" d="M85.13,33.326c-0.209,0-0.395-0.131-0.464-0.327l-2.573-8.439c-0.054-0.151-0.03-0.318,0.062-0.449
				c0.092-0.131,0.242-0.208,0.402-0.208h5.929c0.209,0,0.396,0.132,0.465,0.329l1.227,3.484l2.058-5.697H79.989
				c-0.271,0-0.491-0.22-0.491-0.491V19.24c0-0.272,0.22-0.493,0.491-0.493h17.618c0.998,0.01,1.687,0.271,2.052,0.772
				c0.411,0.567,0.43,1.426,0.057,2.626c-0.005,0.016-0.011,0.032-0.018,0.048l-3.003,7c-0.078,0.181-0.256,0.298-0.452,0.298
				h-5.395l1.113,3.18c0.053,0.15,0.029,0.317-0.063,0.447c-0.092,0.13-0.241,0.207-0.4,0.207H85.13z"/>
			<path fill="#FFFFFF" d="M102.474,34.194c-0.271,0-0.492-0.221-0.492-0.492V19.24c0-0.272,0.221-0.493,0.492-0.493h6.382
				c0.271,0,0.491,0.221,0.491,0.493v4.534h11.336c0.271,0,0.491,0.22,0.491,0.492v2.265c0,0.272-0.22,0.492-0.491,0.492h-11.336
				v6.68c0,0.271-0.221,0.492-0.491,0.492H102.474z M118.677,22.083c-0.272,0-0.492-0.22-0.492-0.492v-3.912
				c0-0.271,0.22-0.492,0.492-0.492h0.88c0.271,0,0.491,0.22,0.491,0.492v3.912c0,0.272-0.221,0.492-0.491,0.492H118.677z
				 M115.6,22.083c-0.272,0-0.492-0.22-0.492-0.492v-3.912c0-0.271,0.22-0.492,0.492-0.492h0.88c0.271,0,0.492,0.22,0.492,0.492
				v3.912c0,0.272-0.221,0.492-0.492,0.492H115.6z"/>
			<path fill="#FFFFFF" d="M134.925,34.194c-0.139,0-0.27-0.058-0.363-0.16c-0.093-0.102-0.139-0.238-0.127-0.375l1.212-14.463
				c0.022-0.253,0.235-0.448,0.49-0.448h6.419c0.139,0,0.271,0.059,0.363,0.161c0.094,0.102,0.14,0.239,0.127,0.377l-1.252,14.462
				c-0.024,0.253-0.236,0.447-0.49,0.447H134.925z M123.918,30.51c-0.272,0-0.492-0.22-0.492-0.492V19.24
				c0-0.272,0.22-0.493,0.492-0.493h6.164c0.272,0,0.492,0.221,0.492,0.493v10.779c0,0.271-0.22,0.492-0.492,0.492H123.918z"/>
			<path fill="#FFFFFF" d="M84.229,53.719c-0.146,0-0.284-0.065-0.378-0.178c-0.093-0.111-0.132-0.26-0.105-0.403l1.757-9.601
				h-4.376l-1.937,9.784c-0.046,0.231-0.248,0.397-0.482,0.397h-5.958c-0.146,0-0.285-0.065-0.378-0.178
				c-0.094-0.112-0.133-0.261-0.106-0.404l1.777-9.6h-2.129c-0.271,0-0.492-0.221-0.492-0.492v-2.287
				c0-0.271,0.221-0.492,0.492-0.492h2.692l0.226-1.142c0.045-0.23,0.247-0.396,0.482-0.396h5.972c0.147,0,0.287,0.066,0.38,0.18
				c0.094,0.114,0.132,0.264,0.103,0.407l-0.187,0.951h8.513c0.994,0.011,1.719,0.277,2.159,0.793
				c0.473,0.554,0.629,1.409,0.462,2.543l-1.914,9.72c-0.046,0.231-0.248,0.397-0.483,0.397H84.229z"/>
			<path fill="#FFFFFF" d="M104.957,53.719c-0.146,0-0.284-0.065-0.377-0.177c-0.094-0.112-0.133-0.26-0.107-0.403l1.953-10.729
				H94.981c-0.271,0-0.492-0.22-0.492-0.492v-2.287c0-0.271,0.221-0.491,0.492-0.491h16.08c0.983,0.01,1.699,0.272,2.135,0.78
				c0.477,0.557,0.633,1.431,0.465,2.599l-2.026,10.799c-0.043,0.232-0.247,0.401-0.483,0.401H104.957z"/>
			<path fill="#FFFFFF" d="M115.928,53.719c-0.272,0-0.492-0.221-0.492-0.492v-1.768c0-0.271,0.22-0.492,0.492-0.492h4.36v-7.104
				h-4.36c-0.272,0-0.492-0.221-0.492-0.492v-1.875c0-0.272,0.22-0.492,0.492-0.492h15.241c0.271,0,0.492,0.22,0.492,0.492v1.875
				c0,0.271-0.221,0.492-0.492,0.492h-4.383v7.104h4.383c0.271,0,0.492,0.221,0.492,0.492v1.768c0,0.271-0.221,0.492-0.492,0.492
				H115.928z"/>
		</g>
	</g>
	<g>
		<path fill="#FFFFFF" d="M63.832,63.135h0.504c0.176,0,0.285,0.079,0.346,0.243l0.285,0.765l0.365,1.008h0.024
			c0.127-0.352,0.249-0.668,0.376-1.008l0.286-0.765c0.061-0.164,0.17-0.243,0.346-0.243h0.486c0.231,0,0.328,0.151,0.231,0.358
			l-1.203,2.568v1.294c0,0.194-0.109,0.304-0.304,0.304h-0.474c-0.194,0-0.304-0.109-0.304-0.304v-1.294l-1.196-2.568
			C63.503,63.286,63.601,63.135,63.832,63.135z"/>
		<path fill="#FFFFFF" d="M68.008,66.694c0-0.729,0.571-1.123,1.919-1.27c-0.024-0.279-0.17-0.443-0.522-0.443
			c-0.2,0-0.401,0.061-0.631,0.164c-0.182,0.085-0.322,0.043-0.413-0.127l-0.097-0.177c-0.091-0.17-0.049-0.321,0.122-0.413
			c0.382-0.188,0.79-0.31,1.227-0.31c0.893,0,1.397,0.498,1.397,1.579v1.658c0,0.194-0.109,0.304-0.304,0.304h-0.304
			c-0.182,0-0.286-0.055-0.31-0.17l-0.037-0.177h-0.03c-0.286,0.255-0.607,0.432-0.99,0.432
			C68.397,67.744,68.008,67.271,68.008,66.694z M69.405,66.906c0.219,0,0.364-0.104,0.522-0.273V66.08
			c-0.674,0.085-0.893,0.285-0.893,0.528C69.035,66.809,69.18,66.906,69.405,66.906z"/>
		<path fill="#FFFFFF" d="M72.884,64.203h0.298c0.182,0,0.297,0.073,0.322,0.219l0.037,0.219h0.018
			c0.285-0.285,0.583-0.522,1.051-0.522c0.479,0,0.771,0.2,0.947,0.571c0.297-0.304,0.619-0.571,1.081-0.571
			c0.753,0,1.081,0.541,1.081,1.403v1.834c0,0.194-0.109,0.304-0.304,0.304h-0.474c-0.194,0-0.304-0.109-0.304-0.304v-1.7
			c0-0.48-0.122-0.614-0.395-0.614c-0.158,0-0.346,0.098-0.552,0.311v2.004c0,0.194-0.109,0.304-0.304,0.304h-0.474
			c-0.194,0-0.304-0.109-0.304-0.304v-1.7c0-0.48-0.128-0.614-0.401-0.614c-0.158,0-0.346,0.098-0.547,0.311v2.004
			c0,0.194-0.109,0.304-0.303,0.304h-0.474c-0.194,0-0.303-0.109-0.303-0.304v-2.849C72.581,64.313,72.689,64.203,72.884,64.203z"/>
		<path fill="#FFFFFF" d="M79.133,66.694c0-0.729,0.571-1.123,1.919-1.27c-0.024-0.279-0.17-0.443-0.522-0.443
			c-0.2,0-0.401,0.061-0.631,0.164c-0.182,0.085-0.322,0.043-0.413-0.127l-0.097-0.177c-0.091-0.17-0.049-0.321,0.122-0.413
			c0.382-0.188,0.79-0.31,1.227-0.31c0.893,0,1.397,0.498,1.397,1.579v1.658c0,0.194-0.109,0.304-0.304,0.304h-0.304
			c-0.182,0-0.286-0.055-0.31-0.17l-0.037-0.177h-0.03c-0.286,0.255-0.607,0.432-0.99,0.432
			C79.522,67.744,79.133,67.271,79.133,66.694z M80.53,66.906c0.219,0,0.364-0.104,0.522-0.273V66.08
			c-0.674,0.085-0.893,0.285-0.893,0.528C80.16,66.809,80.305,66.906,80.53,66.906z"/>
		<path fill="#FFFFFF" d="M83.54,65.928c0-1.129,0.71-1.81,1.427-1.81c0.382,0,0.607,0.14,0.832,0.358l-0.037-0.516v-0.851
			c0-0.194,0.109-0.304,0.304-0.304h0.474c0.194,0,0.304,0.109,0.304,0.304v4.245c0,0.194-0.109,0.304-0.304,0.304h-0.304
			c-0.182,0-0.285-0.049-0.31-0.164l-0.042-0.17h-0.024c-0.243,0.242-0.577,0.419-0.905,0.419
			C84.092,67.744,83.54,67.058,83.54,65.928z M85.24,66.858c0.207,0,0.371-0.067,0.522-0.292v-1.36
			c-0.164-0.151-0.358-0.206-0.541-0.206c-0.297,0-0.571,0.279-0.571,0.917C84.651,66.578,84.87,66.858,85.24,66.858z"/>
		<path fill="#FFFFFF" d="M88.268,65.928c0-1.142,0.814-1.81,1.695-1.81c0.874,0,1.688,0.668,1.688,1.81
			c0,1.148-0.813,1.816-1.688,1.816C89.082,67.744,88.268,67.076,88.268,65.928z M89.963,66.869c0.4,0,0.583-0.364,0.583-0.941
			c0-0.57-0.183-0.935-0.583-0.935c-0.407,0-0.589,0.364-0.589,0.935C89.374,66.505,89.556,66.869,89.963,66.869z"/>
		<path fill="#FFFFFF" d="M93.376,64.203h0.291c0.188,0,0.298,0.104,0.322,0.286l0.042,0.315h0.019
			c0.255-0.462,0.638-0.687,0.983-0.687c0.049,0,0.098,0,0.134,0.006c0.194,0.013,0.268,0.158,0.231,0.353l-0.067,0.347
			c-0.036,0.188-0.121,0.279-0.243,0.255c-0.061-0.006-0.121-0.013-0.194-0.013c-0.255,0-0.564,0.164-0.74,0.62v1.67
			c0,0.194-0.109,0.304-0.304,0.304h-0.474c-0.194,0-0.304-0.109-0.304-0.304v-2.849C93.072,64.313,93.182,64.203,93.376,64.203z"/>
		<path fill="#FFFFFF" d="M97.191,62.613c0.358,0,0.602,0.219,0.602,0.553c0,0.34-0.243,0.559-0.602,0.559
			c-0.364,0-0.601-0.219-0.601-0.559C96.591,62.831,96.827,62.613,97.191,62.613z M96.955,64.203h0.474
			c0.194,0,0.304,0.109,0.304,0.304v2.849c0,0.194-0.109,0.304-0.304,0.304h-0.474c-0.194,0-0.304-0.109-0.304-0.304v-2.849
			C96.651,64.313,96.761,64.203,96.955,64.203z"/>
		<path fill="#FFFFFF" d="M102.731,65.424c0-1.506,1.009-2.368,2.156-2.368c0.462,0,0.856,0.17,1.154,0.395
			c0.151,0.115,0.151,0.279,0.03,0.425l-0.188,0.231c-0.121,0.151-0.261,0.157-0.425,0.049c-0.164-0.104-0.341-0.171-0.553-0.171
			c-0.583,0-1.063,0.522-1.063,1.403c0,0.898,0.413,1.421,1.051,1.421c0.249,0,0.456-0.085,0.638-0.213
			c0.158-0.115,0.292-0.115,0.419,0.037l0.188,0.225c0.121,0.146,0.128,0.298-0.012,0.425c-0.353,0.304-0.784,0.462-1.275,0.462
			C103.703,67.744,102.731,66.954,102.731,65.424z"/>
		<path fill="#FFFFFF" d="M107.528,66.694c0-0.729,0.571-1.123,1.919-1.27c-0.023-0.279-0.17-0.443-0.521-0.443
			c-0.201,0-0.401,0.061-0.632,0.164c-0.183,0.085-0.322,0.043-0.413-0.127l-0.098-0.177c-0.091-0.17-0.048-0.321,0.122-0.413
			c0.383-0.188,0.789-0.31,1.227-0.31c0.893,0,1.396,0.498,1.396,1.579v1.658c0,0.194-0.109,0.304-0.304,0.304h-0.304
			c-0.182,0-0.285-0.055-0.31-0.17l-0.036-0.177h-0.03c-0.285,0.255-0.607,0.432-0.99,0.432
			C107.917,67.744,107.528,67.271,107.528,66.694z M108.926,66.906c0.218,0,0.364-0.104,0.521-0.273V66.08
			c-0.674,0.085-0.893,0.285-0.893,0.528C108.555,66.809,108.701,66.906,108.926,66.906z"/>
		<path fill="#FFFFFF" d="M111.785,64.744v-0.207c0-0.188,0.079-0.297,0.23-0.31l0.23-0.019v-0.14c0-0.729,0.347-1.348,1.306-1.348
			c0.158,0,0.298,0.019,0.419,0.036c0.188,0.037,0.256,0.183,0.213,0.371l-0.055,0.218c-0.042,0.188-0.121,0.262-0.236,0.237
			c-0.062-0.012-0.122-0.019-0.183-0.019c-0.237,0-0.383,0.128-0.383,0.474v0.164h0.31c0.194,0,0.304,0.109,0.304,0.304v0.237
			c0,0.194-0.109,0.304-0.304,0.304h-0.31v2.308c0,0.194-0.109,0.304-0.304,0.304h-0.474c-0.194,0-0.304-0.109-0.304-0.304v-2.308
			h-0.157C111.895,65.048,111.785,64.939,111.785,64.744z"/>
		<path fill="#FFFFFF" d="M114.999,65.928c0-1.117,0.808-1.81,1.64-1.81c0.996,0,1.481,0.723,1.481,1.664
			c0,0.067,0,0.128-0.006,0.188c-0.019,0.188-0.14,0.279-0.322,0.279h-1.749c0.098,0.474,0.426,0.668,0.862,0.668
			c0.158,0,0.311-0.03,0.462-0.091c0.183-0.067,0.315-0.037,0.407,0.134l0.072,0.127c0.098,0.17,0.062,0.328-0.127,0.426
			c-0.304,0.151-0.656,0.23-0.96,0.23C115.764,67.744,114.999,67.076,114.999,65.928z M117.203,65.539
			c0-0.34-0.151-0.595-0.547-0.595c-0.297,0-0.559,0.188-0.631,0.595H117.203z"/>
	</g>
	<g>
		<g id="グループ_1268_7_" transform="translate(0 15.048)">
			<g id="グループ_1266_7_" transform="translate(0 0)">
				<g id="グループ_1265_7_">
					<path id="パス_756_7_" fill="#FFFFFF" d="M36.22,35.649c0.249-0.093,0.45-0.063,0.423-0.165
						c-0.028-0.103-0.639-0.02-1.013,0.066c-0.39,0.089-0.972,0.533-1.117,0.476c-0.053-0.022-0.111-0.116,0.015-0.242
						c0.298-0.236,0.628-0.427,0.981-0.566c0.836-0.23,1.722-0.218,2.552,0.034c0.181,0.093,1.717-2.285,1.676-2.476
						c-0.043-0.189-0.117-0.598-0.131-0.764c0-0.015,0.002-0.029,0.006-0.043c-0.472-0.327-0.867-0.751-1.162-1.243
						c-0.288-0.174-0.467-0.302-0.497-0.328c-0.004-0.003-0.011-0.004-0.017-0.004c-5.239,0.417-5.143-3.146-5.13-3.376
						c0.002-0.008-0.002-0.016-0.012-0.019c-2.639-1.908-0.095-8.361,0.012-8.619c0.002-0.005,0.002-0.01,0-0.017
						c-0.031-0.083-0.3-0.752-0.567-1.295c-0.397-0.556-0.881-1.045-1.431-1.448c-0.856-0.579-1.928-0.125-2.356-0.125
						c-0.43,0-0.285-0.292-0.285-0.292c0.617-0.93,1.586-1.769,2.207-2.045c0.004-0.001,0.007-0.003,0.011-0.005
						c1.415-1.719,2.852-1.879,3.42-1.879h0.005c2.033-0.027,3.785,1.43,4.131,3.435c5.48-1.852,8.857,0.912,8.857,0.912
						c5.242,2.16,8.515,9.445,8.564,9.557l0,0c0.2,0.278-7.321,5.227-7.459,5.249c-0.005,0-0.006,0-0.011,0.003
						c-0.585,0.46-1.23,0.836-1.917,1.12c0.058,0.34-0.038,0.688-0.265,0.948l0.058,0.219c0.009,0.021,0.015,0.039,0.015,0.059
						c0.002,0.122-0.022,0.242-0.07,0.356l-1.555,3.672c-0.006,0.01-0.214,0.33-0.22,0.344c-0.208,0.318-0.934,0.233-1.26,0.516
						c-0.538,0.467-0.521,1.109-0.652,1.195c-0.136,0.074-0.28,0.06-0.309-0.08c-0.015-0.37,0.08-0.733,0.272-1.051
						c0.118-0.223,0.288-0.415,0.493-0.562c0.035-0.027,0.03-0.155-0.168-0.111c-0.396,0.071-0.774,0.221-1.11,0.442
						c-0.318,0.297-0.61,0.627-0.865,0.981c-0.117,0.101-0.3,0.123-0.311-0.081c0.108-0.485,0.389-0.917,0.788-1.215
						c0.214-0.167,0.453-0.304,0.707-0.399c0.409-0.198,0.575-0.17,0.528-0.265c-0.378-0.068-0.767-0.039-1.13,0.086
						c-0.47,0.151-0.95,0.264-1.438,0.336c-0.074-0.038-0.101-0.132-0.063-0.205c0.007-0.013,0.017-0.023,0.026-0.033
						c1.174-0.603,2.502-0.835,3.812-0.665c0.195,0.054,1.203-2.599,1.123-2.776c-0.033-0.075-0.082-0.19-0.131-0.303
						c-0.436-0.104-0.785-0.427-0.919-0.855c-0.495,0.011-0.993-0.025-1.482-0.105c-0.171,0.203-0.4,0.352-0.656,0.42l0.005,0.118
						c0.006,0.019,0.007,0.037,0.004,0.058c-0.026,0.119-0.074,0.232-0.142,0.332l-2.28,3.26c-0.008,0.011-0.279,0.282-0.285,0.292
						c-0.271,0.269-0.962,0.028-1.342,0.238c-0.395,0.268-0.758,0.576-1.087,0.921c-0.147,0.045-0.285,0-0.285-0.144
						c0.066-0.309,0.234-0.587,0.478-0.788c0.233-0.225,0.508-0.398,0.807-0.52c0.041-0.019,0.064-0.144-0.144-0.144
						c-0.867,0.082-1.701,0.381-2.425,0.868c-0.134,0.071-0.32,0.06-0.285-0.146c0.043-0.248,0.756-0.609,1.285-0.868
						C35.728,35.792,35.971,35.709,36.22,35.649z"/>
				</g>
			</g>
		</g>
		<path fill="#FFFFFF" d="M55.361,40.228c0,0,15.086,11.398,15.086,13.785c0,0-3.616-3.2-4.194-3.346c0,0,2.387,2.404,2.098,3.129
			l-2.893-2.171c0,0,1.013,1.446,0.723,2.024c0,0-9.146-6.471-16.668-10.955"/>
	</g>
	<g>
		<g>
			<path fill="#FFFFFF" d="M85.021,10.746c0,0,0.696,3.2-2.938,1.61c-3.636-1.59-5.116-9.664-1.729-9.227
				C82.779,3.443,83.285,5.54,85.021,10.746z"/>
		</g>
		<path fill="#FFFFFF" d="M80.755,2.539c0,0,2.82,1.057,3.977,3.941c0,0,1.41,3.182,0.832,5.351c0,0,3.345-0.308,0.994-6.092
			c0,0-1.054-2.447-2.869-3.355C82.913,1.997,81.369,1.49,80.755,2.539z"/>
	</g>
	<g>
		<g>
			<path fill="#FFFFFF" d="M92.856,8.328c0,0-1.612,2.85-3.264-0.758c-1.65-3.608,2.626-10.615,4.859-8.032
				C96.052,1.389,95.032,3.29,92.856,8.328z"/>
		</g>
		<path fill="#FFFFFF" d="M95.145-0.635c0,0,1.398,2.667,0.34,5.589c0,0-1.069,3.313-2.946,4.544c0,0,2.699,2,4.801-3.88
			c0,0,0.846-2.527,0.096-4.413C97.115,0.4,96.302-1.007,95.145-0.635z"/>
	</g>
</g>
</svg>
