<?xml version="1.0" encoding="UTF-8"?>
<svg id="Logo" xmlns="http://www.w3.org/2000/svg" viewBox="0 0 85.04 69.95">
  <g id="Logo-2" data-name="Logo">
    <path id="white_background" data-name="white background" d="M76.33,17.63c.05,.75,.05,1.5,.05,2.26,0,23.05-17.55,49.64-49.64,49.64h0c-9.48,0-18.76-2.72-26.74-7.84,1.38,.17,2.76,.25,4.15,.25,7.86,0,15.49-2.63,21.67-7.48-7.47-.14-14.01-5.01-16.3-12.12,2.62,.5,5.31,.4,7.88-.3-8.14-1.64-14-8.8-14-17.1v-.22c2.43,1.35,5.14,2.1,7.92,2.18C3.66,21.78,1.29,11.58,5.92,3.61,14.78,14.51,27.85,21.13,41.88,21.84c-1.41-6.06,.51-12.41,5.05-16.67,7.03-6.61,18.08-6.27,24.68,.76,3.91-.77,7.65-2.2,11.08-4.24-1.3,4.04-4.03,7.47-7.67,9.65,3.46-.41,6.84-1.33,10.02-2.75-2.34,3.51-5.29,6.57-8.71,9.04Z"/>
  </g>
</svg>